<?xml version="1.0" encoding="utf-8"?>
<!-- Generator: Adobe Illustrator 28.0.0, SVG Export Plug-In . SVG Version: 6.00 Build 0)  -->
<svg version="1.1" id="Capa_1" xmlns="http://www.w3.org/2000/svg" xmlns:xlink="http://www.w3.org/1999/xlink" x="0px" y="0px"
	 viewBox="0 0 2500 2500" style="enable-background:new 0 0 2500 2500;" xml:space="preserve">
<style type="text/css">
	.st0{fill-rule:evenodd;clip-rule:evenodd;fill:#CC2229;}
	.st1{fill-rule:evenodd;clip-rule:evenodd;fill:#FFFFFF;}
</style>
<path class="st0" d="M2387.2,763.9c-62.4-149.7-150.7-283.1-264.9-398.3c-113.2-115.2-244.7-204.4-391.6-267.8
	C1578.2,32.6,1417,0,1250,0c-168,0-327.3,32.6-479.8,97.9c-147.8,63.3-279.3,152.6-392.5,267.8C263.4,480.8,175.1,614.2,112.7,763.9
	c-64.3,154.5-96.9,316.7-96.9,486.6c0,168.9,32.6,331.1,96.9,485.6c62.4,149.7,150.7,283.1,264.9,398.3
	c113.3,115.2,244.7,204.4,392.5,267.8c152.6,65.3,311.9,97.9,479.8,97.9c167,0,328.2-32.6,480.8-97.9
	c146.8-63.4,278.3-152.6,391.6-267.8c114.2-115.2,202.5-248.6,264.9-398.3c64.3-154.5,96.9-316.7,96.9-485.6
	C2484.2,1080.6,2451.6,918.4,2387.2,763.9L2387.2,763.9z M1778.8,1093.1c56.6,0,106.5,20.2,147.8,61.4
	c40.3,41.3,60.5,91.2,60.5,148.7c0,57.6-20.1,107.5-60.5,147.8c-41.3,41.3-91.2,62.4-147.8,62.4c-56.6,0-105.6-21.1-145.9-62.4
	c-41.3-40.3-61.4-90.2-61.4-147.8s20.2-107.5,61.4-148.7C1673.2,1113.2,1722.2,1093.1,1778.8,1093.1z M283.6,1066.2
	c49.9-51.8,109.4-76.8,181.4-75.8c57.6-1,110.4,17.3,156.4,53.7c45.1,35.5,74.9,81.6,90.2,137.2H607c-13.4-26.9-32.6-49.9-56.6-66.2
	c-26.9-17.3-54.7-25.9-85.4-25.9c-44.2,0-81.6,16.3-112.3,47c-31.7,31.7-47,69.1-46.1,113.3c-1,44.1,14.4,81.6,46.1,113.2
	c30.7,30.7,68.1,47,112.3,47c30.7,0,58.5-8.6,85.4-25c24-17.1,43.5-39.8,56.6-66.2h104.6c-15.4,55.7-45.1,100.8-90.2,137.2
	c-46.1,35.5-98.9,52.8-156.4,52.8c-72,0-131.5-25-181.4-74.9c-50.9-50.9-75.8-113.2-75.8-184.3
	C207.8,1177.5,232.7,1117.1,283.6,1066.2L283.6,1066.2z M957.3,1144.9c26.9-35.5,73.9-53.7,141.1-52.8c43.2-1,81.6,7.7,116.1,25.9
	c32.6,17.3,49.9,50.9,49.9,98.9v293.7h-99.8v-41.3c-30.7,26.9-73.9,40.3-128.6,41.3c-33.6-1-61.4-10.6-81.6-27.8
	c-23-21.1-34.5-49.9-33.6-85.4c-1-50.9,17.3-86.4,54.7-108.4c22.1-12.5,50.9-21.1,86.4-25.9l76.8-12.5c15.4-6.7,23-17.3,23-30.7
	c-1-16.3-5.8-27.8-17.3-33.6c-11.5-6.7-27.8-10.6-49-9.6c-24.9-1-42.2,5.8-52.8,19.2c-6.7,7.7-12.5,19.2-14.4,36.5h-99.8
	C931.4,1195.8,940,1167,957.3,1144.9L957.3,1144.9z M762.5,990.4h99.8v520.2h-99.8V990.4z M1426.6,1163.1
	c20.1-27.8,44.1-46.1,71-56.6l38.4-10.6l25.9-1.9l1,101.7l-30.7-1.9c-19.2,0-37.4,5.8-54.7,17.3c-15.4,10.6-27.8,23-34.6,38.4
	c-8.6,14.4-12.5,37.4-12.5,70.1v191h-98.9v-399.2l95,1L1426.6,1163.1L1426.6,1163.1L1426.6,1163.1z M2245.2,867.6l-240.9,240.9
	l-63.3-63.3l240.9-240.9L2245.2,867.6z M1835.4,754.3v258.2h-89.3V754.3H1835.4z M2048.5,1297.5v-89.3h263.9v89.3H2048.5z"/>
<path class="st1" d="M1926.6,1154.5c-41.3-41.3-91.2-61.4-147.8-61.4c-56.6,0-105.6,20.2-145.9,61.4
	c-41.3,41.3-61.4,91.2-61.4,148.7c0,57.6,20.2,107.5,61.4,147.8c40.3,41.3,89.3,62.4,145.9,62.4c56.6,0,106.5-21.1,147.8-62.4
	c40.3-40.3,60.5-90.2,60.5-147.8S1966.9,1195.8,1926.6,1154.5L1926.6,1154.5z M1856.5,1381c-21.1,22.1-47,32.6-77.7,32.6
	c-29.7,0-55.7-10.6-76.8-32.6c-21.1-22.1-32.6-48-32.6-77.7c0-31.7,11.5-57.6,32.6-78.7c21.1-22.1,47-32.6,76.8-31.7
	c30.7-1,56.6,9.6,78.7,31.7c20.1,21.1,30.7,47,31.7,78.7C1888.2,1333,1877.6,1358.9,1856.5,1381L1856.5,1381z"/>
<path class="st0" d="M1778.8,1413.6c30.7,0,56.6-10.6,77.7-32.6c21.1-22.1,31.7-48,32.6-77.7c-1-31.7-11.5-57.6-32.6-78.7
	c-21.1-22.1-47-32.6-77.7-31.7c-29.7-1-55.7,9.6-76.8,31.7c-21.1,21.1-32.6,47-32.6,78.7c0,29.7,11.5,55.7,32.6,77.7
	C1723.1,1403.1,1749,1413.6,1778.8,1413.6z"/>
<path class="st1" d="M465,990.4c-72-1-131.5,24-181.4,75.8c-50.9,50.9-75.8,111.3-75.8,183.3c0,71,25,133.4,75.8,184.3
	c49.9,49.9,109.4,74.9,181.4,74.9c57.6,0,110.4-17.3,156.4-52.8c45.1-36.5,74.9-81.6,90.2-137.2H607c-13.2,26.4-32.6,49.1-56.6,66.2
	c-26.9,16.3-54.7,25-85.4,25c-44.2,0-81.6-16.3-112.3-47c-31.7-31.7-47-69.1-46.1-113.2c-1-44.2,14.4-81.6,46.1-113.3
	c30.7-30.7,68.1-47,112.3-47c30.7,0,58.5,8.6,85.4,25.9c24,16.3,43.2,39.3,56.6,66.2h104.6c-15.4-55.7-45.1-101.7-90.2-137.2
	C575.3,1007.7,522.5,989.5,465,990.4z M1098.4,1092.1c-67.2-1-114.2,17.3-141.1,52.8c-17.3,22.1-25.9,50.9-28.8,87.3h99.8
	c1.9-17.3,7.7-28.8,14.4-36.5c10.5-13.4,27.8-20.2,52.8-19.2c21.1-1,37.4,2.9,49,9.6c11.5,5.8,16.3,17.3,17.3,33.6
	c0,13.4-7.7,24-23,30.7l-76.8,12.5c-35.5,4.8-64.3,13.4-86.4,25.9c-37.4,22.1-55.7,57.6-54.7,108.4c-1,35.5,10.6,64.3,33.6,85.4
	c20.2,17.3,48,26.9,81.6,27.8c54.7-1,97.9-14.4,128.6-41.3v41.3h99.8v-293.7c0-48-17.3-81.6-49.9-98.9
	C1179.9,1099.8,1141.6,1091.2,1098.4,1092.1L1098.4,1092.1z M1140.6,1317.7l19.2-10.6v40.3c0,34.6-9.6,58.6-27.8,72
	c-19.2,13.4-39.3,20.1-62.4,20.1c-14.4,0-25.9-3.8-35.5-11.5c-9.6-8.6-14.4-21.1-14.4-39.3c0-20.2,7.7-34.6,24-45.1
	c9.6-5.7,25.9-10.6,47-13.4L1140.6,1317.7L1140.6,1317.7z"/>
<path class="st0" d="M1159.8,1307.1l-19.2,10.6l-49.9,12.5c-21.1,2.9-37.4,7.7-47,13.4c-16.3,10.6-24,25-24,45.1
	c0,18.2,4.8,30.7,14.4,39.3c9.6,7.7,21.1,11.5,35.5,11.5c23,0,43.2-6.7,62.4-20.1c18.2-13.4,27.8-37.4,27.8-72L1159.8,1307.1
	L1159.8,1307.1L1159.8,1307.1z"/>
<path class="st1" d="M862.3,990.4h-99.8v520.2h99.8V990.4z M1497.6,1106.5c-26.9,10.5-50.9,28.8-71,56.6v-50.9l-95-1v399.2h98.9
	v-191c0-32.6,3.8-55.7,12.5-70.1c6.7-15.4,19.2-27.8,34.6-38.4c17.3-11.5,35.5-17.3,54.7-17.3l30.7,1.9l-1-101.7l-25.9,1.9
	L1497.6,1106.5L1497.6,1106.5z M2004.3,1108.4l240.9-240.9l-63.3-63.3L1941,1045.1L2004.3,1108.4z M1835.4,1012.5V754.3h-89.2v258.2
	L1835.4,1012.5L1835.4,1012.5z M2048.5,1208.2v89.3h263.9v-89.3H2048.5z"/>
</svg>
